<svg xmlns="http://www.w3.org/2000/svg" xmlns:xlink="http://www.w3.org/1999/xlink" version="1.1" x="0px" y="0px" viewBox="0 0 100 125" enable-background="new 0 0 100 100" xml:space="preserve"><path d="M75.021,47.5H24.979c-1.381,0-2.5,1.119-2.5,2.5s1.119,2.5,2.5,2.5h50.041c1.381,0,2.5-1.119,2.5-2.5  S76.401,47.5,75.021,47.5z M50,2C23.532,2,2,23.532,2,50s21.532,48,48,48s48-21.532,48-48S76.468,2,50,2z M50,93  C26.29,93,7,73.71,7,50S26.29,7,50,7s43,19.29,43,43S73.71,93,50,93z"/><text x="0" y="115" fill="#000000" font-size="5px" font-weight="bold" font-family="'Helvetica Neue', Helvetica, Arial-Unicode, Arial, Sans-serif">Created by myladkings</text><text x="0" y="120" fill="#000000" font-size="5px" font-weight="bold" font-family="'Helvetica Neue', Helvetica, Arial-Unicode, Arial, Sans-serif">from the Noun Project</text></svg>