<svg xmlns="http://www.w3.org/2000/svg" xmlns:xlink="http://www.w3.org/1999/xlink" viewBox="0 0 24 30" version="1.1" x="0px" y="0px"><title>symbol/chevron-right-folder</title><desc>Created with Sketch.</desc><g stroke="none" stroke-width="1" fill="none" fill-rule="evenodd"><path d="M10.1464466,15.1215466 L12.7928932,12.4751 L10.1464466,9.82865339 C9.95118446,9.63339124 9.95118446,9.31680876 10.1464466,9.12154661 C10.3417088,8.92628446 10.6582912,8.92628446 10.8535534,9.12154661 L13.8535534,12.1215466 C14.0488155,12.3168088 14.0488155,12.6333912 13.8535534,12.8286534 L10.8535534,15.8286534 C10.6582912,16.0239155 10.3417088,16.0239155 10.1464466,15.8286534 C9.95118446,15.6333912 9.95118446,15.3168088 10.1464466,15.1215466 Z M8.3818,3 C9.25718883,3 10.0564703,3.49403001 10.4468676,4.27610153 C10.6691725,4.71998717 11.1221998,5 11.6178,5 L19.4998,5 C20.3279424,5 20.9998,5.67185763 20.9998,6.5 L20.9998,18.5 C20.9998,19.3281424 20.3279424,20 19.4998,20 L3.4998,20 C2.67165763,20 1.9998,19.3281424 1.9998,18.5 L1.9998,4.5 C1.9998,3.67185763 2.67165763,3 3.4998,3 L8.3818,3 Z M8.3818,4 L3.4998,4 C3.22394237,4 2.9998,4.22414237 2.9998,4.5 L2.9998,18.5 C2.9998,18.7758576 3.22394237,19 3.4998,19 L19.4998,19 C19.7756576,19 19.9998,18.7758576 19.9998,18.5 L19.9998,6.5 C19.9998,6.22414237 19.7756576,6 19.4998,6 L11.6178,6 C10.7435199,6 9.94448114,5.50611997 9.55244054,4.72331484 C9.33107633,4.279863 8.87829149,4 8.3818,4 Z" fill="#000000" fill-rule="nonzero"/></g><text x="0" y="39" fill="#000000" font-size="5px" font-weight="bold" font-family="'Helvetica Neue', Helvetica, Arial-Unicode, Arial, Sans-serif">Created by Travis Avery</text><text x="0" y="44" fill="#000000" font-size="5px" font-weight="bold" font-family="'Helvetica Neue', Helvetica, Arial-Unicode, Arial, Sans-serif">from the Noun Project</text></svg>