<svg xmlns="http://www.w3.org/2000/svg" viewBox="0 0 100 125" x="0px" y="0px"><title>Straight_Line</title><path d="M40,52.5H20a2.5,2.5,0,0,1,0-5H40a2.5,2.5,0,0,1,0,5Z"/><path d="M30,62.5A2.5,2.5,0,0,1,27.5,60V40a2.5,2.5,0,0,1,5,0V60A2.5,2.5,0,0,1,30,62.5Z"/><path d="M80,52.5H60a2.5,2.5,0,0,1,0-5H80a2.5,2.5,0,0,1,0,5Z"/><text x="0" y="115" fill="#000000" font-size="5px" font-weight="bold" font-family="'Helvetica Neue', Helvetica, Arial-Unicode, Arial, Sans-serif">Created by Bohdan Burmich</text><text x="0" y="120" fill="#000000" font-size="5px" font-weight="bold" font-family="'Helvetica Neue', Helvetica, Arial-Unicode, Arial, Sans-serif">from the Noun Project</text></svg>