<svg xmlns="http://www.w3.org/2000/svg" xmlns:xlink="http://www.w3.org/1999/xlink" viewBox="0 0 24 30" version="1.1" x="0px" y="0px"><title>icon/circle-add</title><desc>Created with Sketch.</desc><g stroke="none" stroke-width="1" fill="none" fill-rule="evenodd"><path d="M12,12 L12,15.5 C12,15.7761424 11.7761424,16 11.5,16 C11.2238576,16 11,15.7761424 11,15.5 L11,12 L7.5,12 C7.22385763,12 7,11.7761424 7,11.5 C7,11.2238576 7.22385763,11 7.5,11 L11,11 L11,7.5 C11,7.22385763 11.2238576,7 11.5,7 C11.7761424,7 12,7.22385763 12,7.5 L12,11 L15.5,11 C15.7761424,11 16,11.2238576 16,11.5 C16,11.7761424 15.7761424,12 15.5,12 L12,12 Z M20,11.5 C20,6.80514237 16.1948576,3 11.5,3 C6.80514237,3 3,6.80514237 3,11.5 C3,16.1948576 6.80514237,20 11.5,20 C16.1948576,20 20,16.1948576 20,11.5 Z M21,11.5 C21,16.7471424 16.7471424,21 11.5,21 C6.25285763,21 2,16.7471424 2,11.5 C2,6.25285763 6.25285763,2 11.5,2 C16.7471424,2 21,6.25285763 21,11.5 Z" fill="#000000" fill-rule="nonzero"/></g><text x="0" y="39" fill="#000000" font-size="5px" font-weight="bold" font-family="'Helvetica Neue', Helvetica, Arial-Unicode, Arial, Sans-serif">Created by Travis Avery</text><text x="0" y="44" fill="#000000" font-size="5px" font-weight="bold" font-family="'Helvetica Neue', Helvetica, Arial-Unicode, Arial, Sans-serif">from the Noun Project</text></svg>